<?xml version="1.0" encoding="utf-8"?>
<svg xmlns="http://www.w3.org/2000/svg" data-name="Layer 1" id="Layer_1" viewBox="0 0 43.88 19.75">
  <defs>
    <style>
      .cls-1 {
        fill: none;
      }

      .cls-2 {
        fill: url(#linear-gradient);
      }

      .cls-3 {
        clip-path: url(#clippath);
      }

      .cls-4 {
        fill: #6a6c6c;
      }

      .cls-5 {
        fill: #fff;
      }

      .cls-6 {
        clip-path: url(#clippath-1);
      }

      .cls-7 {
        clip-path: url(#clippath-4);
      }

      .cls-8 {
        clip-path: url(#clippath-3);
      }

      .cls-9 {
        clip-path: url(#clippath-2);
      }

      .cls-10 {
        clip-path: url(#clippath-7);
      }

      .cls-11 {
        clip-path: url(#clippath-8);
      }

      .cls-12 {
        clip-path: url(#clippath-6);
      }

      .cls-13 {
        clip-path: url(#clippath-5);
      }

      .cls-14 {
        clip-path: url(#clippath-9);
      }

      .cls-15 {
        clip-path: url(#clippath-13);
      }

      .cls-16 {
        clip-path: url(#clippath-12);
      }

      .cls-17 {
        clip-path: url(#clippath-10);
      }

      .cls-18 {
        clip-path: url(#clippath-11);
      }

      .cls-19 {
        fill: url(#radial-gradient-3);
      }

      .cls-20 {
        fill: url(#radial-gradient-2);
      }

      .cls-21 {
        fill: url(#linear-gradient-8);
      }

      .cls-22 {
        fill: url(#linear-gradient-9);
      }

      .cls-23 {
        fill: url(#linear-gradient-3);
      }

      .cls-24 {
        fill: url(#linear-gradient-4);
      }

      .cls-25 {
        fill: url(#linear-gradient-2);
      }

      .cls-26 {
        fill: url(#linear-gradient-6);
      }

      .cls-27 {
        fill: url(#linear-gradient-7);
      }

      .cls-28 {
        fill: url(#linear-gradient-5);
      }

      .cls-29 {
        fill: url(#radial-gradient);
      }

      .cls-30 {
        fill: url(#linear-gradient-10);
      }

      .cls-31 {
        fill: url(#linear-gradient-11);
      }
    </style>
    <clipPath id="clippath">
      <path class="cls-1" d="M4.81,9.87c0,4.17,3.38,7.54,7.54,7.54s7.52-3.34,7.55-7.49v-.12c-.03-4.14-3.4-7.49-7.55-7.49s-7.54,3.38-7.54,7.54"/>
    </clipPath>
    <radialGradient cx="-380.01" cy="427.44" fx="-380.01" fy="427.44" gradientTransform="translate(24702.62 27781.6) scale(64.97 -64.97)" gradientUnits="userSpaceOnUse" id="radial-gradient" r=".12">
      <stop offset="0" stop-color="#bc1237"/>
      <stop offset=".5" stop-color="#bc1237"/>
      <stop offset=".73" stop-color="#b91236"/>
      <stop offset=".85" stop-color="#b21233"/>
      <stop offset=".94" stop-color="#a5122d"/>
      <stop offset="1" stop-color="#971328"/>
    </radialGradient>
    <clipPath id="clippath-1">
      <path class="cls-1" d="M7.25,4.77c-2.52,2.52-2.78,6.36-.56,8.58,2.21,2.21,6.05,1.96,8.57-.56,2.53-2.53,2.78-6.37,.57-8.58-1.01-1.01-2.36-1.51-3.77-1.51-1.68,0-3.44,.7-4.81,2.07"/>
    </clipPath>
    <linearGradient gradientTransform="translate(38025.33 42993.8) scale(100.44 -100.44)" gradientUnits="userSpaceOnUse" id="linear-gradient" x1="-378.53" x2="-378.41" y1="427.96" y2="427.96">
      <stop offset="0" stop-color="#ee740b"/>
      <stop offset=".08" stop-color="#e56411"/>
      <stop offset=".29" stop-color="#d24020"/>
      <stop offset=".48" stop-color="#c5272b"/>
      <stop offset=".66" stop-color="#bc1731"/>
      <stop offset=".8" stop-color="#ba1234"/>
      <stop offset="1" stop-color="#ba1234"/>
    </linearGradient>
    <clipPath id="clippath-2">
      <path class="cls-1" d="M7.25,4.77c-2.52,2.52-2.78,6.36-.56,8.58,2.21,2.21,6.05,1.96,8.57-.56,2.53-2.53,2.78-6.37,.57-8.58-1.01-1.01-2.36-1.51-3.77-1.51-1.68,0-3.44,.7-4.81,2.07"/>
    </clipPath>
    <linearGradient gradientTransform="translate(41480.48 36190.93) rotate(90) scale(96.17)" gradientUnits="userSpaceOnUse" id="linear-gradient-2" x1="-376.29" x2="-376.17" y1="431.21" y2="431.21">
      <stop offset="0" stop-color="#f28792"/>
      <stop offset=".14" stop-color="#e36778"/>
      <stop offset=".33" stop-color="#d1425b"/>
      <stop offset=".52" stop-color="#c42745"/>
      <stop offset=".68" stop-color="#bc1738"/>
      <stop offset=".8" stop-color="#ba1234"/>
      <stop offset="1" stop-color="#ba1234"/>
    </linearGradient>
    <clipPath id="clippath-3">
      <path class="cls-1" d="M12.19,6.68h-.03s-.05,.02-.05,.02l.05,.07v6.37l-.19,.11,.14,.1s.06,.03,.11,.03h2.1s.04-.02,.04-.05v-.58s0-.06-.02-.07l-.11-.17h-1.37V6.71s0-.05,0-.05l-.1-.17-.56,.19Z"/>
    </clipPath>
    <linearGradient gradientTransform="translate(22562.48 19683.5) rotate(90) scale(52.06)" gradientUnits="userSpaceOnUse" id="linear-gradient-3" x1="-377.93" x2="-377.81" y1="433.1" y2="433.1">
      <stop offset="0" stop-color="#c83c53"/>
      <stop offset=".07" stop-color="#bc344b"/>
      <stop offset=".23" stop-color="#a8273e"/>
      <stop offset=".42" stop-color="#9a1e35"/>
      <stop offset=".64" stop-color="#91182f"/>
      <stop offset="1" stop-color="#8f172e"/>
    </linearGradient>
    <clipPath id="clippath-4">
      <path class="cls-1" d="M12.43,3.52l-.16,.05c-3.54,0-6.2,2.96-6.2,6.49,0,1.71,.67,3.31,1.88,4.52,1.21,1.21,2.82,1.82,4.54,1.82s3.34-.65,4.56-1.86c1.22-1.21,1.88-2.81,1.88-4.52v-.37l-.15-.13h-4.67v.75l.12,.16s.01,.02,.04,.02h3.91c-.2,2.95-2.69,5.26-5.67,5.26-1.52,0-2.94-.59-4.02-1.66-1.07-1.07-1.66-2.48-1.66-3.99s.56-2.96,1.63-4.02c1.08-1.06,2.43-1.62,4.06-1.66h.31s.03,0,.03,0c.02,0,.04,0,.04-.05v-.61s-.02-.07-.02-.07l-.14-.17-.31,.04Z"/>
    </clipPath>
    <linearGradient gradientTransform="translate(46000.69 40260.51) rotate(90) scale(106.7)" href="#linear-gradient-3" id="linear-gradient-4" x1="-377.3" x2="-377.18" y1="431.02" y2="431.02"/>
    <clipPath id="clippath-5">
      <path class="cls-1" d="M9.03,7.58c0,.55,.46,1.01,1.01,1.01s1.01-.45,1.01-1.01-.45-1.01-1.01-1.01-1.01,.45-1.01,1.01"/>
    </clipPath>
    <linearGradient gradientTransform="translate(7380.55 6329.26) rotate(90) scale(16.7)" href="#linear-gradient-3" id="linear-gradient-5" x1="-378.6" x2="-378.48" y1="441.35" y2="441.35"/>
    <clipPath id="clippath-6">
      <polygon class="cls-1" points="12.58 6.62 12.59 12.64 12.75 12.51 12.75 6.48 12.58 6.62"/>
    </clipPath>
    <linearGradient gradientTransform="translate(715.85 -689.36) scale(1.38)" gradientUnits="userSpaceOnUse" id="linear-gradient-6" x1="-511.36" x2="-511.24" y1="508.2" y2="508.2">
      <stop offset="0" stop-color="#b8bfc3"/>
      <stop offset=".43" stop-color="#777d80"/>
      <stop offset=".81" stop-color="#43494c"/>
      <stop offset="1" stop-color="#303538"/>
    </linearGradient>
    <clipPath id="clippath-7">
      <polygon class="cls-1" points="14.08 12.65 14.08 13.1 14.23 13.25 14.23 12.51 14.08 12.65"/>
    </clipPath>
    <linearGradient gradientTransform="translate(667.9 -593.28) scale(1.22)" href="#linear-gradient-6" id="linear-gradient-7" x1="-537.99" x2="-537.86" y1="498.77" y2="498.77"/>
    <clipPath id="clippath-8">
      <path class="cls-1" d="M9.11,7.46c0-.46,.38-.84,.84-.84s.84,.37,.84,.84-.38,.83-.84,.83-.84-.37-.84-.83m-.15,0c0,.54,.44,.98,.99,.98s.98-.44,.98-.98-.44-.98-.98-.98-.99,.44-.99,.98"/>
    </clipPath>
    <linearGradient gradientTransform="translate(-6762.39 6162.03) rotate(90) scale(16.26 -16.26)" gradientUnits="userSpaceOnUse" id="linear-gradient-8" x1="-378.58" x2="-378.46" y1="416.51" y2="416.51">
      <stop offset="0" stop-color="#b0bbc2"/>
      <stop offset=".27" stop-color="#8d979d"/>
      <stop offset=".86" stop-color="#383e41"/>
      <stop offset="1" stop-color="#23282b"/>
    </linearGradient>
    <clipPath id="clippath-9">
      <path class="cls-1" d="M5.96,9.87c0,1.71,.67,3.31,1.87,4.52,1.21,1.21,2.81,1.87,4.52,1.87s3.32-.67,4.53-1.87c1.21-1.21,1.87-2.81,1.87-4.52v-.37l-.15,.15v.22c0,1.67-.65,3.24-1.83,4.42-1.18,1.18-2.75,1.83-4.42,1.83s-3.23-.65-4.41-1.83c-1.18-1.18-1.83-2.75-1.83-4.42,0-3.45,2.8-6.25,6.24-6.25h.24s.15-.14,.15-.14h-.38c-3.52,0-6.39,2.86-6.39,6.39"/>
    </clipPath>
    <linearGradient gradientTransform="translate(-45494.53 40196.51) rotate(90) scale(106.53 -106.53)" gradientUnits="userSpaceOnUse" id="linear-gradient-9" x1="-377.3" x2="-377.18" y1="427.18" y2="427.18">
      <stop offset="0" stop-color="#b8bfc3"/>
      <stop offset=".78" stop-color="#575d60"/>
      <stop offset="1" stop-color="#3c4245"/>
    </linearGradient>
    <clipPath id="clippath-10">
      <path class="cls-1" d="M12.27,4.08c-1.51,.02-2.93,.62-4.01,1.69-1.09,1.09-1.69,2.55-1.69,4.1s.6,3,1.69,4.09c1.08,1.08,2.5,1.68,4.02,1.7h.15c3-.04,5.5-2.4,5.7-5.4v-.16s-.07,.07-.07,.07l-.08,.08c-.2,2.95-2.67,5.26-5.63,5.26-1.51,0-2.92-.59-3.99-1.65-1.06-1.07-1.65-2.48-1.65-3.99s.59-2.93,1.65-3.99c1.07-1.06,2.49-1.65,3.99-1.65h.38s-.15-.14-.15-.14h-.17s-.15,0-.15,0Z"/>
    </clipPath>
    <linearGradient gradientTransform="translate(-35825.94 -41125.35) rotate(-180) scale(95.62 -95.62)" gradientUnits="userSpaceOnUse" id="linear-gradient-10" x1="-374.88" x2="-374.75" y1="430.21" y2="430.21">
      <stop offset="0" stop-color="#b8bfc3"/>
      <stop offset="1" stop-color="#484e52"/>
    </linearGradient>
    <clipPath id="clippath-11">
      <polygon class="cls-1" points="12.59 3.62 12.59 4.09 12.74 4.23 12.74 3.48 12.59 3.62"/>
    </clipPath>
    <linearGradient gradientTransform="translate(652.46 -664.34) scale(1.21)" href="#linear-gradient-6" id="linear-gradient-11" x1="-530.09" x2="-529.97" y1="553.56" y2="553.56"/>
    <clipPath id="clippath-12">
      <path class="cls-1" d="M12.05,6.56v6.61h2.1v-.59h-1.5V6.56h-.6Zm.22-3.01c-3.44,.04-6.23,2.86-6.23,6.32,0,1.69,.66,3.27,1.85,4.46,1.19,1.19,2.78,1.85,4.46,1.85s3.28-.66,4.47-1.85c1.19-1.19,1.85-2.78,1.85-4.46v-.29h-.25s-4.26,0-4.26,0v.59h3.91s0,.07,0,.09c-.2,2.98-2.68,5.34-5.71,5.34-1.53,0-2.96-.6-4.05-1.68-1.08-1.08-1.67-2.52-1.67-4.05s.6-2.97,1.67-4.05c1.08-1.08,2.52-1.67,4.05-1.67,.07,0,.23,0,.3,0v-.59c-.06,0-.16,0-.24,0h-.15Z"/>
    </clipPath>
    <radialGradient cx="-379.29" cy="430.68" fx="-379.29" fy="430.68" gradientTransform="translate(30264.55 -34346.9) scale(79.77)" gradientUnits="userSpaceOnUse" id="radial-gradient-2" r=".12">
      <stop offset="0" stop-color="#fff"/>
      <stop offset=".35" stop-color="#fff"/>
      <stop offset=".52" stop-color="#fafbfb"/>
      <stop offset=".69" stop-color="#edf0f1"/>
      <stop offset=".87" stop-color="#d8dee1"/>
      <stop offset="1" stop-color="#c5cdd2"/>
    </radialGradient>
    <clipPath id="clippath-13">
      <path class="cls-1" d="M9.04,7.46c0,.5,.41,.9,.91,.9s.91-.4,.91-.9-.41-.91-.91-.91-.91,.4-.91,.91"/>
    </clipPath>
    <radialGradient cx="-391.18" cy="439.95" fx="-391.18" fy="439.95" gradientTransform="translate(4567.04 -5118.55) scale(11.65)" gradientUnits="userSpaceOnUse" id="radial-gradient-3" r=".12">
      <stop offset="0" stop-color="#fff"/>
      <stop offset=".35" stop-color="#fff"/>
      <stop offset=".55" stop-color="#fafbfb"/>
      <stop offset=".76" stop-color="#edf0f1"/>
      <stop offset=".97" stop-color="#d8dfe1"/>
      <stop offset="1" stop-color="#d5dcdf"/>
    </radialGradient>
  </defs>
  <g class="cls-3">
    <rect class="cls-29" height="15.09" width="15.09" x="4.81" y="2.33"/>
  </g>
  <g class="cls-6">
    <rect class="cls-2" height="12.87" width="13.57" x="4.48" y="2.69"/>
  </g>
  <g class="cls-9">
    <rect class="cls-25" height="16.73" transform="translate(-2.44 4.4) rotate(-20)" width="17.15" x="2.69" y=".76"/>
  </g>
  <g class="cls-8">
    <rect class="cls-23" height="6.57" transform="translate(-3.17 12.22) rotate(-45)" width="6.57" x="9.88" y="6.65"/>
  </g>
  <g class="cls-7">
    <rect class="cls-24" height="18.23" transform="translate(-3.37 11.75) rotate(-45)" width="18.23" x="3.38" y=".82"/>
  </g>
  <g class="cls-13">
    <rect class="cls-28" height="2.86" transform="translate(-2.42 9.32) rotate(-45)" width="2.86" x="8.61" y="6.15"/>
  </g>
  <g class="cls-12">
    <rect class="cls-26" height="6.16" width=".17" x="12.58" y="6.48"/>
  </g>
  <g class="cls-10">
    <rect class="cls-27" height=".74" width=".15" x="14.08" y="12.51"/>
  </g>
  <g class="cls-11">
    <rect class="cls-21" height="2.78" transform="translate(-2.36 9.22) rotate(-45)" width="2.78" x="8.56" y="6.07"/>
  </g>
  <g class="cls-14">
    <rect class="cls-22" height="18.09" transform="translate(-3.36 11.63) rotate(-45)" width="18.09" x="3.31" y=".83"/>
  </g>
  <g class="cls-17">
    <rect class="cls-30" height="11.58" width="11.57" x="6.57" y="4.08"/>
  </g>
  <g class="cls-18">
    <rect class="cls-31" height=".75" width=".15" x="12.59" y="3.48"/>
  </g>
  <g class="cls-16">
    <rect class="cls-20" height="12.63" width="12.62" x="6.04" y="3.56"/>
  </g>
  <g class="cls-15">
    <rect class="cls-19" height="1.81" width="1.81" x="9.04" y="6.56"/>
  </g>
  <path class="cls-5" d="M10.11,6.72c.21,0,.4,.07,.55,.19-.17-.21-.42-.36-.71-.36-.5,0-.91,.4-.91,.91,0,.29,.14,.54,.35,.71-.12-.15-.19-.34-.19-.54,0-.5,.41-.91,.91-.91"/>
  <path class="cls-5" d="M12.65,3.56c-.08,0-.23,0-.3,0-3.48,0-6.31,2.83-6.31,6.32,0,1.69,.66,3.27,1.85,4.46,.04,.04,.08,.07,.12,.11-1.12-1.18-1.74-2.72-1.74-4.36,0-3.47,2.46-6.36,6.39-6.53"/>
  <path class="cls-5" d="M12.65,12.59s.43,.13,1.5,.13v-.13h-1.5Z"/>
  <path class="cls-5" d="M12.65,6.75v-.19h-.6v6.61s.19-1.01,.19-6.43h.41Z"/>
  <path class="cls-5" d="M18.66,9.58h-4.51v.59h.16v-.42c3.93,0,4.34-.16,4.34-.16"/>
  <path class="cls-5" d="M18.07,10.17s0,.07,0,.09c-.2,2.97-2.68,5.34-5.71,5.34-1.53,0-2.96-.6-4.05-1.68-.71-.71-1.2-1.57-1.46-2.5,.68,2.46,2.93,4.25,5.61,4.25,2.88,0,5.53-2.25,5.69-5.49h-.07Z"/>
  <polygon class="cls-4" points="25.53 4.95 23.28 4.95 23.28 14.71 30.2 14.71 30.2 12.81 25.53 12.81 25.53 4.95"/>
  <path class="cls-4" d="M35.16,10.99h1.84v1.7c-.34,.13-1,.26-1.63,.26-2.03,0-2.7-1.03-2.7-3.12s.64-3.17,2.67-3.17c1.13,0,1.77,.35,2.3,1.03l1.4-1.29c-.85-1.22-2.35-1.59-3.75-1.59-3.15,0-4.81,1.72-4.81,5.01s1.5,5.04,4.8,5.04c1.51,0,2.99-.39,3.8-.95v-4.73h-3.91v1.82Z"/>
</svg>